####
#
# OBJ File Generated by Meshlab
#
####
# Object aeroplane.obj
#
# Vertices: 34
# Faces: 32
#
####
mtllib ./aeroplane.obj.mtl

vn 0.000000 0.000000 -1.452949
v -0.756014 0.014480 -0.000000 0.749020 0.749020 0.749020
vn 0.000000 0.000000 -1.800344
v -0.598386 0.389459 -0.000000 0.749020 0.749020 0.749020
vn 0.000000 0.000000 -1.341249
v -0.510766 0.014480 -0.000000 0.749020 0.749020 0.749020
vn 0.000000 0.000000 -1.688644
v -0.711618 0.389459 -0.000000 0.749020 0.749020 0.749020
vn -1.331226 -0.875146 -0.000000
v -0.805587 -0.101341 -0.000000 0.800000 0.800000 0.800000
vn 1.038037 -2.419662 2.749728
v 0.490954 -0.101341 0.127722 0.800000 0.800000 0.800000
vn -0.665613 -2.704020 2.993597
v -0.532571 -0.101341 0.127722 0.800000 0.800000 0.800000
vn 2.076074 -1.443861 0.000000
v 0.636012 -0.101341 -0.000000 0.800000 0.800000 0.800000
vn -0.665613 2.704020 2.993596
v -0.532571 0.014480 0.127722 0.800000 0.800000 0.800000
vn -1.331226 0.875146 0.000000
v -0.805587 0.014480 -0.000000 0.800000 0.800000 0.800000
vn -0.665613 -2.704020 -2.993596
v -0.532571 -0.101341 -0.127722 0.800000 0.800000 0.800000
vn 1.038037 2.419662 2.749728
v 0.490954 0.014480 0.127722 0.800000 0.800000 0.800000
vn -0.665613 2.704020 -2.993597
v -0.532571 0.014480 -0.127722 0.800000 0.800000 0.800000
vn 1.038037 -2.419662 -2.749728
v 0.490954 -0.101341 -0.127722 0.800000 0.800000 0.800000
vn 2.076074 1.443861 0.000000
v 0.636012 0.014480 -0.000000 0.800000 0.800000 0.800000
vn 1.038037 2.419662 -2.749728
v 0.490954 0.014480 -0.127722 0.800000 0.800000 0.800000
vn 0.000000 -1.570796 0.000000
v -0.706442 -0.000000 -0.417622 0.800000 0.800000 0.800000
vn 0.000000 -1.738698 0.000000
v -0.532571 -0.000000 -0.127722 0.800000 0.800000 0.800000
vn 0.000000 -1.133232 0.000000
v -0.706442 -0.000000 -0.046384 0.800000 0.800000 0.800000
vn 0.000000 -1.840459 0.000000
v -0.612698 -0.000000 -0.417622 0.800000 0.800000 0.800000
vn 0.000000 1.133232 0.000000
v -0.706442 -0.000000 0.046384 0.800000 0.800000 0.800000
vn 0.000000 1.840459 0.000000
v -0.612698 -0.000000 0.417622 0.800000 0.800000 0.800000
vn 0.000000 1.570796 0.000000
v -0.706442 -0.000000 0.417622 0.800000 0.800000 0.800000
vn 0.000000 1.738698 0.000000
v -0.532571 -0.000000 0.127722 0.800000 0.800000 0.800000
vn 0.000000 1.504370 0.000000
v 0.117508 -0.000000 0.127722 0.800000 0.800000 0.800000
vn 0.000000 1.714254 0.000000
v -0.059599 -0.000000 0.998222 0.800000 0.800000 0.800000
vn 0.000000 1.637222 0.000000
v 0.059599 -0.000000 0.998222 0.800000 0.800000 0.800000
vn 0.000000 2.998136 0.000000
v -0.163742 -0.000000 0.277257 0.800000 0.800000 0.800000
vn 0.000000 1.570796 0.000000
v -0.163742 -0.000000 0.127722 0.800000 0.800000 0.800000
vn 0.000000 1.637223 0.000000
v 0.059599 -0.000000 -0.998222 0.800000 0.800000 0.800000
vn 0.000000 1.570796 0.000000
v -0.163742 -0.000000 -0.127722 0.800000 0.800000 0.800000
vn 0.000000 1.504370 0.000000
v 0.117508 -0.000000 -0.127722 0.800000 0.800000 0.800000
vn 0.000000 2.998136 0.000000
v -0.163742 -0.000000 -0.277257 0.800000 0.800000 0.800000
vn 0.000000 1.714254 0.000000
v -0.059599 -0.000000 -0.998222 0.800000 0.800000 0.800000
# 34 vertices, 0 vertices normals


usemtl material_0
f 2//2 3//3 1//1
f 1//1 4//4 2//2
f 6//6 7//7 5//5
f 5//5 8//8 6//6
f 9//9 7//7 6//6
f 10//10 5//5 7//7
f 5//5 11//11 8//8
f 12//12 6//6 8//8
f 6//6 12//12 9//9
f 10//10 7//7 9//9
f 5//5 10//10 13//13
f 13//13 11//11 5//5
f 11//11 14//14 8//8
f 8//8 15//15 12//12
f 9//9 12//12 15//15
f 15//15 10//10 9//9
f 10//10 15//15 13//13
f 11//11 13//13 16//16
f 16//16 14//14 11//11
f 15//15 8//8 14//14
f 15//15 16//16 13//13
f 14//14 16//16 15//15
f 18//18 19//19 17//17
f 17//17 20//20 18//18
f 22//22 21//21 23//23
f 22//22 24//24 21//21
f 26//26 27//27 25//25
f 25//25 28//28 26//26
f 25//25 29//29 28//28
f 31//31 32//32 30//30
f 30//30 33//33 31//31
f 30//30 34//34 33//33
# 32 faces, 0 coords texture

# End of File
